<?xml version="1.0" encoding="UTF-8"?>
<svg version="1.1" xmlns="http://www.w3.org/2000/svg" width="512" height="512">
<path d="M0 0 C2.89521531 1.80665095 5.39412252 3.80446145 7.97265625 6.04296875 C12.61221389 10.00906538 17.34107904 13.80861581 22.19555664 17.51196289 C22.7446167 17.93082764 23.29367676 18.34969238 23.859375 18.78125 C24.43349121 19.21904785 25.00760742 19.6568457 25.59912109 20.10791016 C29.21765702 22.87957476 32.81305219 25.68108209 36.41015625 28.48046875 C37.56330322 29.3777771 37.56330322 29.3777771 38.73974609 30.29321289 C46.2260841 36.12305008 53.68600338 41.98614901 61.140625 47.85644531 C68.23401051 53.44103961 75.34358619 59.0039756 82.47265625 64.54296875 C90.71943436 70.95037491 98.93583694 77.3954149 107.140625 83.85644531 C114.23401051 89.44103961 121.34358619 95.0039756 128.47265625 100.54296875 C136.71943436 106.95037491 144.93583694 113.3954149 153.140625 119.85644531 C162.5356749 127.25313087 171.94828943 134.62701104 181.40722656 141.94189453 C183.25462555 143.3739563 185.09471693 144.81484271 186.93359375 146.2578125 C192.84587614 150.82501265 198.66545427 154.47232873 205.47265625 157.54296875 C206.80763438 158.20633563 208.14121038 158.87254044 209.47265625 159.54296875 C209.51937317 185.49882647 209.5546436 211.4546779 209.57628059 237.41056919 C209.58659396 249.46228503 209.6006555 261.51397475 209.62353516 273.56567383 C209.64346712 284.06970215 209.65637224 294.57371155 209.66083324 305.07775825 C209.66344093 310.63975392 209.66957152 316.20169546 209.68411636 321.76367378 C209.69769715 326.99944477 209.70187786 332.23513936 209.69887161 337.47092628 C209.69942155 339.39177109 209.70339601 341.31261846 209.7110672 343.23344803 C209.72103618 345.8585301 209.71861797 348.48332479 209.71316528 351.1084137 C209.72190381 352.24511335 209.72190381 352.24511335 209.73081887 353.40477663 C209.7007322 358.77382773 209.40152579 364.25926 205.81640625 368.50390625 C205.20796875 368.97054688 204.59953125 369.4371875 203.97265625 369.91796875 C203.36421875 370.40007812 202.75578125 370.8821875 202.12890625 371.37890625 C198.66509131 373.81337995 196.21213857 373.67096389 191.99637222 373.67718983 C191.32051264 373.67954206 190.64465306 373.68189429 189.94831288 373.6843178 C187.66118444 373.6910271 185.37411257 373.690549 183.0869751 373.69013977 C181.43960411 373.6934372 179.79223393 373.6971625 178.1448648 373.70128125 C173.60033644 373.71132318 169.05582128 373.71502156 164.5112834 373.71767056 C159.61681014 373.72156712 154.72234741 373.73114588 149.82788086 373.73988342 C137.99914505 373.75966603 126.17040836 373.76971624 114.34166014 373.77861121 C108.77568291 373.7829911 103.20970664 373.78835868 97.64373016 373.79360008 C79.14872052 373.81061402 60.65371149 373.8251092 42.15869522 373.83234882 C37.35677337 373.83425882 32.55485152 373.83617914 27.75292969 373.83813477 C26.55938864 373.83861851 25.3658476 373.83910225 24.13613865 373.83960065 C4.79244245 373.84790467 -14.55119198 373.87324715 -33.89486119 373.90571544 C-53.74023251 373.93875514 -73.58557241 373.95679478 -93.43097138 373.95999306 C-104.57926146 373.96216101 -115.72746146 373.97095119 -126.87572479 373.99645424 C-136.36827266 374.01811905 -145.86070858 374.02623249 -155.35327837 374.01648746 C-160.19856065 374.01193051 -165.04361176 374.01390968 -169.88886261 374.0332489 C-174.32284256 374.05079412 -178.75642122 374.04995357 -183.19040492 374.03435161 C-184.79609887 374.03196234 -186.40181998 374.03636702 -188.00747225 374.04818026 C-190.18803665 374.06323201 -192.36716676 374.05367533 -194.54769516 374.03795338 C-195.75943775 374.03893019 -196.97118034 374.03990699 -198.2196424 374.0409134 C-203.29931883 373.27621386 -206.36689956 370.76613965 -209.83984375 367.10546875 C-213.0416934 362.24340077 -212.66917735 357.006057 -212.64759827 351.34892273 C-212.64845269 350.52794013 -212.64930712 349.70695754 -212.65018743 348.86109668 C-212.65183333 346.11269779 -212.64633542 343.36436006 -212.64086914 340.6159668 C-212.64058705 338.64481101 -212.64074543 336.67365512 -212.64131165 334.70249939 C-212.64159877 329.35171726 -212.63571571 324.00095751 -212.62873769 318.65018058 C-212.62249006 313.05811409 -212.62189923 307.4660471 -212.62071228 301.87397766 C-212.61760313 291.284765 -212.60939533 280.69556265 -212.59936279 270.10635453 C-212.58818875 258.05084661 -212.58268794 245.99533819 -212.57766736 233.93982637 C-212.56721239 209.14086811 -212.54962098 184.34191901 -212.52734375 159.54296875 C-211.58922852 159.09058838 -210.65111328 158.63820801 -209.68457031 158.17211914 C-208.42888174 157.55777057 -207.17335658 156.94308791 -205.91796875 156.328125 C-205.30260254 156.03248657 -204.68723633 155.73684814 -204.05322266 155.43225098 C-198.54166832 152.71822801 -193.81651601 149.31214143 -189.0703125 145.41015625 C-185.7251147 142.68984332 -182.3257262 140.04457488 -178.91601562 137.40576172 C-170.418404 130.82920965 -161.96926874 124.19073755 -153.52734375 117.54296875 C-145.10965335 110.91428398 -136.66973737 104.31535503 -128.20898438 97.74169922 C-121.29498159 92.36757983 -114.40721808 86.96066839 -107.52734375 81.54296875 C-99.10965335 74.91428398 -90.66973737 68.31535503 -82.20898438 61.74169922 C-75.29498159 56.36757983 -68.40721808 50.96066839 -61.52734375 45.54296875 C-53.11046385 38.91492223 -44.67199046 32.31580543 -36.21118164 25.74389648 C-32.11246821 22.55872801 -28.02005709 19.3660747 -23.94311523 16.15307617 C-22.80521485 15.25757638 -21.66544681 14.36444389 -20.52368164 13.47387695 C-17.62843577 11.21420386 -14.77038095 8.92204678 -11.94921875 6.5703125 C-11.07197144 5.85536621 -11.07197144 5.85536621 -10.17700195 5.12597656 C-9.06457493 4.2192843 -7.96330595 3.29866389 -6.87573242 2.36230469 C-4.40541744 0.3745387 -3.20005142 -0.57868009 0 0 Z M-90.52734375 120.54296875 C-91.68169922 121.55810547 -91.68169922 121.55810547 -92.859375 122.59375 C-102.92232866 131.9709828 -108.65816741 143.47862434 -112.52734375 156.54296875 C-112.77355469 157.37054688 -113.01976562 158.198125 -113.2734375 159.05078125 C-117.95827089 178.11320677 -113.11362497 197.14175377 -103.59179688 213.79199219 C-99.47844935 220.55826018 -94.11200326 226.12745133 -88.4609375 231.61328125 C-86.55036183 233.51999717 -84.784556 235.4948801 -83.02734375 237.54296875 C-80.63057787 240.33193268 -78.14774984 242.9628766 -75.52734375 245.54296875 C-72.27704392 248.74326397 -69.2801013 252.08521451 -66.30859375 255.54296875 C-64.45309165 257.62633953 -62.51511274 259.58578082 -60.52734375 261.54296875 C-57.92752192 264.10287009 -55.46465977 266.71076415 -53.08984375 269.48046875 C-50.52069104 272.47098591 -47.83417119 275.27413559 -45.02734375 278.04296875 C-41.59851585 281.42538274 -38.40685857 284.92367317 -35.2734375 288.578125 C-32.80428634 291.35661053 -30.15029507 293.93082006 -27.5 296.53515625 C-25.55843798 298.51132037 -23.75839883 300.5574319 -21.96484375 302.66796875 C-17.07288802 308.32881957 -12.03150296 313.9313955 -4.27734375 314.79296875 C3.40258868 315.1675996 8.22879913 313.44347923 13.9453125 308.33203125 C18.45195461 303.91375467 22.66109857 299.26633899 26.76171875 294.47265625 C29.21960585 291.70051874 31.86889229 289.13746186 34.5078125 286.5390625 C36.39496369 284.62189698 38.15951 282.64721553 39.91015625 280.60546875 C43.18396278 276.79472812 46.70629596 273.2921871 50.28125 269.765625 C52.89366693 267.11595435 55.30568246 264.33124072 57.7265625 261.5078125 C60.19747014 258.72735043 62.85432565 256.15178657 65.50390625 253.54296875 C67.4125208 251.60405873 69.19976177 249.60597324 70.97265625 247.54296875 C73.36942213 244.75400482 75.85225016 242.1230609 78.47265625 239.54296875 C81.70641411 236.35274224 84.73460902 233.05220731 87.6875 229.6015625 C88.92457699 228.17499888 90.18988205 226.77261511 91.4765625 225.390625 C105.43131059 210.3237338 112.4146131 191.22570404 111.75390625 170.74609375 C110.65937262 150.73437048 101.57519982 133.69721173 87.29296875 119.9609375 C78.06720717 112.05131643 68.1826524 106.91703544 56.47265625 103.54296875 C55.21582031 103.17558594 55.21582031 103.17558594 53.93359375 102.80078125 C36.48020147 98.53958514 17.91657968 102.39862165 2.296875 110.69921875 C-0.66174767 112.06766093 -2.38571516 111.39977655 -5.52734375 110.54296875 C-7.26646687 109.77342066 -8.99469224 108.97903734 -10.71484375 108.16796875 C-37.64719622 95.47233666 -68.63425959 100.73140023 -90.52734375 120.54296875 Z " fill="#000000" transform="translate(257.52734375,119.45703125)"/>
<path d="M0 0 C1.31107388 1.07465888 2.62363101 2.1475102 3.9375 3.21875 C4.95070313 4.04632813 4.95070313 4.04632813 5.984375 4.890625 C9.43443333 7.66623584 12.96869429 10.32908112 16.5 13 C22.13100707 17.27149005 27.66344765 21.63903595 33.125 26.125 C38.98267228 30.93529775 44.96542365 35.52857633 51.05615234 40.03881836 C56.59081996 44.15831821 61.94282019 48.47637703 67.27783203 52.84985352 C72.8494749 57.41138854 78.5288105 61.80713452 84.25341797 66.17578125 C95.03153611 74.43755062 105.70706334 82.83501355 116.37695312 91.23583984 C119.27058823 93.51336203 122.16666552 95.78777541 125.0625 98.0625 C128.51677351 100.77588743 131.97066048 103.48975354 135.421875 106.20703125 C141.95235886 111.34676392 148.49999359 116.46370342 155.0625 121.5625 C163.30927811 127.96990616 171.52568069 134.41494615 179.73046875 140.87597656 C181.42414915 142.20940443 183.11821378 143.542342 184.8125 144.875 C185.37783447 145.31980713 185.94316895 145.76461426 186.52563477 146.22290039 C190.63691149 149.45339298 194.76531421 152.66128899 198.8984375 155.86376953 C202.62637666 158.75493497 206.34658356 161.65590285 210.0625 164.5625 C210.64789551 165.01963379 211.23329102 165.47676758 211.83642578 165.94775391 C228.18740522 178.77683087 228.18740522 178.77683087 230.0625 189.5625 C231.06481182 200.94678243 230.02583651 208.91550142 222.8125 217.8125 C215.88586652 225.22650855 208.28671749 228.44597039 198.25 228.9375 C184.88263913 228.45214953 176.14658456 220.42164718 166.23583984 212.33154297 C163.20935174 209.86805917 160.13750824 207.46489245 157.0625 205.0625 C155.9373188 204.17731362 154.81232229 203.29189242 153.6875 202.40625 C149.49137861 199.10929748 145.27668076 195.83631542 141.0625 192.5625 C132.81567676 186.15515239 124.59931889 179.71005352 116.39453125 173.24902344 C109.30114574 167.66442914 102.19157006 162.10149315 95.0625 156.5625 C86.81572189 150.15509384 78.59931931 143.71005385 70.39453125 137.24902344 C63.30114574 131.66442914 56.19157006 126.10149315 49.0625 120.5625 C41.93920722 115.02799557 34.83553308 109.4694184 27.74804688 103.88916016 C24.85441177 101.61163797 21.95833448 99.33722459 19.0625 97.0625 C15.60822649 94.34911257 12.15433952 91.63524646 8.703125 88.91796875 C1.22017871 83.02870297 -6.28649414 77.17070259 -13.80957031 71.33276367 C-17.54062693 68.43567376 -21.25938329 65.52684357 -24.9375 62.5625 C-28.64914158 64.20521218 -31.61916296 66.51142687 -34.8125 69 C-35.66678589 69.66370605 -35.66678589 69.66370605 -36.53833008 70.34082031 C-38.34139209 71.74383179 -40.1400984 73.15224609 -41.9375 74.5625 C-42.49260254 74.99771973 -43.04770508 75.43293945 -43.61962891 75.88134766 C-45.86564436 77.64346277 -48.11039229 79.40716827 -50.35302734 81.17358398 C-55.19922813 84.98965203 -60.06610861 88.77866073 -64.9375 92.5625 C-72.06087349 98.09689981 -79.16446763 103.65558215 -86.25195312 109.23583984 C-89.73173078 111.97470308 -93.21484312 114.7093253 -96.69726562 117.44482422 C-99.56484065 119.69757712 -102.43172954 121.95118889 -105.296875 124.20703125 C-112.59640138 129.95202887 -119.920549 135.66453617 -127.25585938 141.36376953 C-134.16986216 146.73788892 -141.05762567 152.14480036 -147.9375 157.5625 C-156.3551904 164.19118477 -164.79510638 170.79011372 -173.25585938 177.36376953 C-180.16986216 182.73788892 -187.05762567 188.14480036 -193.9375 193.5625 C-197.9488931 196.72135464 -201.96229284 199.87760793 -205.98046875 203.02783203 C-207.36900337 204.11669539 -208.75696595 205.2062884 -210.14453125 206.29638672 C-215.38778924 210.41278485 -220.65280519 214.49946531 -225.9375 218.5625 C-227.43023437 219.72072266 -227.43023437 219.72072266 -228.953125 220.90234375 C-237.15347649 227.00103283 -245.67626952 229.77355432 -255.9375 228.5625 C-266.5856704 226.18859448 -274.26634609 219.85632836 -280.11328125 210.7265625 C-283.71084208 202.91763898 -283.23627005 192.14844592 -280.4375 184.1875 C-275.45665441 173.83482093 -266.40566468 167.63719277 -257.44140625 160.95703125 C-253.15317858 157.75396521 -249.00423539 154.40427072 -244.875 151 C-239.01832507 146.18854287 -233.0345114 141.59637557 -226.94384766 137.08618164 C-221.41213396 132.96888042 -216.0623434 128.65386191 -210.73095703 124.28173828 C-206.12315593 120.50821556 -201.45300928 116.83425509 -196.71875 113.22119141 C-192.86996623 110.28377504 -189.05244363 107.30964387 -185.25 104.3125 C-179.82883229 100.0413233 -174.38800885 95.7961671 -168.9375 91.5625 C-161.24948784 85.58941252 -153.58628681 79.5856957 -145.9375 73.5625 C-137.5198096 66.93381523 -129.07989362 60.33488628 -120.61914062 53.76123047 C-113.70513784 48.38711108 -106.81737433 42.98019964 -99.9375 37.5625 C-91.52017812 30.93410543 -83.0834225 24.33180317 -74.61914062 17.76342773 C-71.1246944 15.04986959 -67.63572083 12.33067842 -64.171875 9.578125 C-58.33930295 4.94348591 -52.45977898 0.38651938 -46.4375 -4 C-45.87385742 -4.41797852 -45.31021484 -4.83595703 -44.72949219 -5.26660156 C-29.77525674 -16.00686738 -12.96487898 -10.87128315 0 0 Z " fill="#000000" transform="translate(281.9375,33.4375)"/>
<path d="M0 0 C0.6930574 -0.0049649 1.38611481 -0.00992981 2.10017395 -0.01504517 C4.39255773 -0.02964735 6.68487228 -0.03646588 8.97729492 -0.04199219 C10.57289125 -0.0477457 12.16848756 -0.05350341 13.76408386 -0.05926514 C17.11062949 -0.06976991 20.45715114 -0.07561585 23.80371094 -0.07910156 C28.08428318 -0.08458206 32.36453666 -0.10860259 36.64500904 -0.13707352 C39.9419191 -0.15573209 43.2387529 -0.16090723 46.53571129 -0.16243744 C48.11331612 -0.16545776 49.69091981 -0.17346532 51.26847267 -0.18662262 C53.48000691 -0.20374934 55.69076942 -0.20178707 57.90234375 -0.1953125 C59.15904373 -0.19895813 60.41574371 -0.20260376 61.71052551 -0.20635986 C65.52090318 0.20132358 67.89843455 1.15259061 71.14526367 3.16113281 C74.69106776 7.76109488 76.27164661 11.2347908 76.26551819 17.00163269 C76.26758018 18.49712395 76.26758018 18.49712395 76.26968384 20.02282715 C76.26429092 21.66172913 76.26429092 21.66172913 76.25878906 23.33374023 C76.25893509 24.48509964 76.25908112 25.63645905 76.25923157 26.82270813 C76.25853358 30.63735828 76.25074646 34.45195991 76.24291992 38.26660156 C76.24105534 40.90790276 76.23963163 43.54920431 76.2386322 46.19050598 C76.23552315 52.4377911 76.22731549 58.68505873 76.21728271 64.93233615 C76.20610837 72.04472263 76.20060779 79.15710993 76.19558728 86.269503 C76.18513253 100.90005529 76.16754131 115.53059381 76.14526367 130.16113281 C71.52111658 127.57071321 67.55265012 125.02329518 63.52026367 121.53613281 C59.3529231 117.98194704 55.12696089 114.54324164 50.77026367 111.22363281 C46.22342439 107.75577382 41.70066817 104.2611855 37.20776367 100.72363281 C36.62365723 100.2639209 36.03955078 99.80420898 35.43774414 99.33056641 C33.67322609 97.9412089 31.9092143 96.55121063 30.14526367 95.16113281 C22.49708426 89.13716948 14.83305552 83.13449196 7.14526367 77.16113281 C1.47268662 72.75201535 -4.19833246 68.34099016 -9.85473633 63.91113281 C-10.72678711 63.23050781 -10.72678711 63.23050781 -11.61645508 62.53613281 C-17.77915805 57.70146995 -17.77915805 57.70146995 -18.11543274 55.2973175 C-18.12004013 54.54121689 -18.12464752 53.78511627 -18.12939453 53.00610352 C-18.13892654 52.14793533 -18.14845856 51.28976715 -18.15827942 50.40559387 C-18.15736801 49.47542953 -18.1564566 48.5452652 -18.15551758 47.58691406 C-18.1598027 46.6297197 -18.16408783 45.67252533 -18.16850281 44.68632507 C-18.17425461 42.65620719 -18.17474014 40.62606868 -18.17041016 38.59594727 C-18.16726657 35.50337977 -18.19064166 32.4117839 -18.21606445 29.31933594 C-18.21833913 27.34602985 -18.21904016 25.3727212 -18.21801758 23.39941406 C-18.22722733 22.47937088 -18.23643707 21.5593277 -18.2459259 20.61140442 C-18.19560312 13.55087805 -17.11341511 8.75861341 -12.35473633 3.28613281 C-8.32951654 -0.13530401 -5.12224207 0.02788353 0 0 Z " fill="#000000" transform="translate(383.854736328125,18.8388671875)"/>
</svg>
